<svg width="44" height="44" viewBox="0 0 44 44" fill="none" xmlns="http://www.w3.org/2000/svg">
<rect x="0.25" y="0.25" width="43.5" height="43.5" rx="11.75" fill="#F2EBDC"/>
<g clip-path="url(#clip0_20_32)">
<path d="M22 16C21.7348 16 21.4804 16.1054 21.2929 16.2929C21.1054 16.4804 21 16.7348 21 17V22C21.0001 22.2652 21.1055 22.5195 21.293 22.707L24.293 25.707C24.4816 25.8892 24.7342 25.99 24.9964 25.9877C25.2586 25.9854 25.5094 25.8802 25.6948 25.6948C25.8802 25.5094 25.9854 25.2586 25.9877 24.9964C25.99 24.7342 25.8892 24.4816 25.707 24.293L23 21.586V17C23 16.7348 22.8946 16.4804 22.7071 16.2929C22.5196 16.1054 22.2652 16 22 16Z" fill="#FF6600"/>
<path d="M33.812 20.132C33.4687 17.9578 32.5341 15.92 31.1103 14.2414C29.6865 12.5628 27.8285 11.3081 25.7395 10.6146C23.6505 9.92112 21.411 9.81557 19.2661 10.3095C17.1211 10.8034 15.1533 11.8777 13.578 13.415V11C13.578 10.7348 13.4726 10.4804 13.2851 10.2929C13.0975 10.1054 12.8432 10 12.578 10C12.3128 10 12.0584 10.1054 11.8709 10.2929C11.6833 10.4804 11.578 10.7348 11.578 11V15C11.578 15.5304 11.7887 16.0391 12.1638 16.4142C12.5388 16.7893 13.0475 17 13.578 17H17.578C17.8432 17 18.0975 16.8946 18.2851 16.7071C18.4726 16.5196 18.578 16.2652 18.578 16C18.578 15.7348 18.4726 15.4804 18.2851 15.2929C18.0975 15.1054 17.8432 15 17.578 15H14.827C16.425 13.3776 18.5293 12.3499 20.7913 12.0871C23.0533 11.8243 25.3372 12.3422 27.2646 13.5549C29.192 14.7677 30.6472 16.6026 31.3891 18.7555C32.1311 20.9085 32.1152 23.2503 31.3441 25.393C30.573 27.5357 29.093 29.3507 27.1494 30.5372C25.2057 31.7237 22.915 32.2105 20.6567 31.917C18.3985 31.6236 16.3083 30.5674 14.7325 28.9235C13.1567 27.2796 12.1898 25.1466 11.992 22.878C11.966 22.6342 11.8499 22.409 11.6663 22.2465C11.4828 22.0841 11.2451 21.9961 11 22C10.8601 22.0004 10.7219 22.0299 10.594 22.0866C10.4662 22.1434 10.3516 22.2261 10.2575 22.3296C10.1635 22.4331 10.092 22.555 10.0476 22.6877C10.0033 22.8203 9.98705 22.9607 9.99997 23.1C10.1581 24.6934 10.6335 26.2391 11.3983 27.6459C12.163 29.0528 13.2016 30.2923 14.4528 31.2916C15.704 32.2908 17.1425 33.0296 18.6837 33.4643C20.2248 33.899 21.8373 34.0208 23.4263 33.8227C25.0152 33.6245 26.5485 33.1104 27.9356 32.3105C29.3228 31.5106 30.5358 30.4412 31.5033 29.1653C32.4708 27.8894 33.1731 26.4327 33.5689 24.8811C33.9647 23.3296 34.046 21.7145 33.808 20.131L33.812 20.132Z" fill="#FF6600"/>
</g>
<rect x="0.25" y="0.25" width="43.5" height="43.5" rx="11.75" stroke="#FFF1E7" stroke-width="0.5"/>
<defs>
<clipPath id="clip0_20_32">
<rect width="24" height="24" fill="white" transform="translate(10 10)"/>
</clipPath>
</defs>
</svg>
