<?xml version="1.0" standalone="no"?>
<!DOCTYPE svg PUBLIC "-//W3C//DTD SVG 20010904//EN"
 "http://www.w3.org/TR/2001/REC-SVG-20010904/DTD/svg10.dtd">
<svg version="1.0" xmlns="http://www.w3.org/2000/svg"
 width="900.000000pt" height="1280.000000pt" viewBox="0 0 900.000000 1280.000000"
 preserveAspectRatio="xMidYMid meet">
<metadata>
Created by potrace 1.15, written by Peter Selinger 2001-2017
</metadata>
<g transform="translate(0.000000,1280.000000) scale(0.100000,-0.100000)"
fill="#fafafa" stroke="none">
<path d="M4020 12796 c0 -1 17 -38 39 -81 21 -44 71 -182 109 -306 100 -317
153 -425 286 -582 31 -37 56 -68 56 -70 0 -2 -57 3 -127 10 -127 14 -365 14
-378 1 -19 -19 213 -316 353 -450 l80 -78 -32 -2 c-97 -5 -208 13 -386 63 -58
16 -109 29 -113 29 -12 0 29 -69 119 -206 76 -116 153 -195 256 -265 202 -137
183 -208 -71 -270 -41 -10 -42 -11 -23 -25 11 -8 72 -36 134 -63 169 -72 235
-108 285 -154 60 -55 69 -77 76 -183 9 -124 43 -233 134 -431 l78 -167 6 99
c8 119 28 218 119 595 116 483 151 679 172 957 28 402 -53 748 -238 1012 -142
200 -401 385 -694 494 -86 32 -240 79 -240 73z"/>
<path d="M7615 11669 c-287 -8 -400 -18 -531 -49 -381 -89 -721 -362 -1086
-873 -44 -62 -103 -157 -130 -212 -28 -55 -110 -199 -183 -320 -146 -243 -209
-363 -249 -473 -29 -81 -68 -223 -62 -229 4 -4 425 214 486 252 81 51 164 123
195 169 17 25 36 46 42 46 45 1 276 -102 413 -183 41 -25 77 -43 78 -42 2 2
-18 45 -44 95 -54 106 -114 190 -193 273 -64 67 -68 58 64 122 147 71 278 94
609 111 l119 6 -74 29 c-151 59 -477 137 -582 140 -18 0 -41 4 -52 8 -18 8
-17 11 20 45 51 48 155 98 270 130 71 20 376 82 558 114 63 10 15 87 -85 134
-57 27 -225 73 -308 84 -28 4 -52 10 -55 14 -7 11 122 131 190 177 90 60 201
114 458 218 223 92 339 149 402 201 17 13 23 23 15 22 -8 -1 -136 -5 -285 -9z"/>
<path d="M2095 11143 c-361 -45 -611 -118 -939 -276 -128 -62 -164 -83 -150
-89 11 -4 188 -48 394 -99 426 -104 646 -162 805 -214 160 -53 316 -115 310
-125 -2 -4 -98 -63 -212 -131 l-208 -124 245 -12 c351 -17 541 -31 650 -49
103 -18 183 -43 184 -59 1 -20 -201 -146 -349 -219 -82 -41 -199 -93 -260
-116 -60 -22 -137 -52 -169 -64 l-60 -23 92 -22 c260 -61 589 -98 779 -87 127
7 279 34 367 65 33 11 62 19 64 16 12 -11 -69 -123 -128 -176 -45 -42 -59 -59
-46 -59 11 0 91 17 180 37 247 57 392 49 430 -25 20 -37 73 -86 121 -110 58
-29 157 -57 348 -97 92 -20 180 -40 194 -46 l26 -10 -6 108 c-13 218 -38 286
-190 511 -199 296 -367 502 -582 717 -252 252 -490 428 -760 560 -236 116
-473 187 -720 215 -85 9 -344 12 -410 3z"/>
<path d="M7060 9433 c-282 -26 -458 -54 -695 -108 -82 -19 -193 -39 -245 -45
-199 -22 -346 -63 -710 -198 l-205 -77 95 -7 c52 -4 235 -11 406 -16 361 -9
348 -6 387 -105 24 -64 84 -164 112 -187 11 -9 16 -4 24 26 15 53 47 84 89 84
72 0 154 -57 395 -279 149 -137 253 -221 273 -221 7 0 14 37 18 103 18 255 57
326 161 297 63 -18 220 -124 390 -264 77 -64 143 -116 147 -116 14 0 58 100
74 167 12 51 15 94 10 170 l-6 101 104 -48 c264 -125 468 -191 736 -240 134
-24 255 -54 323 -81 26 -11 50 -19 54 -19 12 0 -7 166 -25 225 -139 445 -675
770 -1377 835 -100 9 -450 11 -535 3z"/>
<path d="M1860 9184 c-477 -31 -795 -122 -1071 -305 -118 -79 -300 -260 -391
-389 -72 -102 -194 -330 -254 -475 -85 -208 -142 -367 -130 -362 8 3 69 40
137 83 341 214 780 445 1049 552 145 57 319 116 326 109 2 -2 -18 -148 -45
-323 -28 -175 -49 -320 -47 -321 2 -2 99 78 217 178 256 217 467 385 568 451
85 55 130 62 175 27 48 -38 47 -53 -9 -173 -29 -61 -69 -154 -88 -206 -33 -88
-137 -418 -153 -483 -6 -25 16 -12 207 119 417 287 581 428 665 570 35 59 45
69 71 72 23 2 36 -3 51 -23 27 -34 44 -120 40 -201 -2 -35 0 -64 3 -64 3 0 24
16 47 36 43 37 141 177 207 297 36 67 39 69 69 63 131 -27 322 -15 481 30 159
45 378 164 509 277 l40 34 -105 7 c-174 12 -304 44 -429 106 -54 27 -218 70
-490 129 -388 84 -774 145 -1085 170 -137 11 -483 20 -565 15z"/>
<path d="M4905 8898 c-110 -80 -375 -252 -809 -525 -948 -598 -1482 -999
-1979 -1483 -472 -459 -854 -1005 -1042 -1487 -15 -40 -34 -73 -42 -73 -8 0
-13 -12 -13 -30 0 -17 -18 -90 -41 -163 -71 -231 -114 -441 -140 -687 -16
-147 -16 -531 0 -680 81 -760 350 -1494 855 -2333 94 -157 137 -212 604 -780
277 -337 514 -622 526 -635 l23 -23 589 10 c324 6 922 15 1329 22 407 6 822
14 923 17 l183 7 -1023 484 c-563 266 -1059 506 -1103 534 -219 138 -532 371
-743 552 -980 842 -1420 1807 -1287 2820 76 585 357 1253 773 1840 293 414
575 709 1357 1420 289 262 707 680 851 849 162 191 344 427 327 425 -4 -1 -57
-37 -118 -81z"/>
<path d="M5070 8545 c0 -4 25 -84 55 -179 31 -94 83 -281 117 -415 59 -240 60
-247 55 -350 -6 -125 -29 -200 -117 -378 -32 -65 -57 -119 -57 -119 1 -1 60
29 131 67 l128 68 -5 -37 c-4 -20 -25 -170 -48 -332 -22 -162 -58 -413 -78
-557 -21 -145 -35 -263 -31 -263 21 0 130 88 211 170 106 107 212 258 306 434
32 60 64 111 71 114 7 2 27 -11 46 -30 68 -68 71 -206 16 -578 -43 -286 -62
-431 -57 -436 8 -8 88 26 144 62 32 20 114 90 182 155 68 65 127 116 132 113
16 -9 10 -141 -10 -226 -11 -46 -40 -157 -66 -248 -53 -194 -98 -413 -93 -464
l3 -35 31 15 c18 8 74 54 125 101 102 92 184 156 212 166 11 4 25 -1 39 -15
20 -20 20 -28 15 -142 -3 -67 -17 -204 -32 -306 -14 -102 -28 -237 -31 -300
-5 -111 -4 -114 13 -91 325 442 433 602 510 754 105 210 146 373 146 582 0
169 -19 266 -96 505 -120 365 -229 535 -600 930 -493 525 -746 765 -1152 1095
-60 49 -134 109 -162 133 -29 25 -53 41 -53 37z"/>
<path d="M4310 4460 c0 -11 5 -20 10 -20 6 0 10 9 10 20 0 11 -4 20 -10 20 -5
0 -10 -9 -10 -20z"/>
</g>
</svg>
