<svg width="40" height="40" viewBox="0 0 40 40" fill="none" xmlns="http://www.w3.org/2000/svg">
<rect width="40" height="40" rx="12" fill="#DCFFE6"/>
<g clip-path="url(#clip0_16_17)">
<path d="M17.7273 26.0331C17.729 25.9165 17.7077 25.8013 17.6646 25.6942C17.6216 25.587 17.5575 25.49 17.4762 25.4087C17.3949 25.3274 17.2979 25.2634 17.1908 25.2203C17.0837 25.1772 16.9685 25.1559 16.8518 25.1577L12.7193 25.2155L18.9174 19.0088C19.0862 18.84 19.1829 18.6129 19.1862 18.3775C19.1895 18.1421 19.0992 17.9177 18.9351 17.7536C18.771 17.5895 18.5466 17.4992 18.3112 17.5025C18.0758 17.5059 17.8488 17.6026 17.68 17.7714L11.4806 23.9794L11.5404 19.8462C11.5438 19.6107 11.4535 19.3862 11.2895 19.2221C11.1254 19.0579 10.901 18.9675 10.6655 18.9707C10.4301 18.974 10.203 19.0706 10.0341 19.2394C9.86517 19.4081 9.76837 19.6352 9.76496 19.8707L9.70127 24.3716C9.69629 24.7213 9.76025 25.0666 9.88948 25.3878C10.0187 25.709 10.2107 25.9998 10.4545 26.2435C10.6982 26.4873 10.989 26.6793 11.3102 26.8085C11.6314 26.9378 11.9767 27.0017 12.3264 26.9967L16.8273 26.933C17.0627 26.9297 17.2897 26.833 17.4585 26.6642C17.6272 26.4955 17.7239 26.2684 17.7273 26.0331Z" fill="#29A75D"/>
<path d="M22.2727 13.9669C22.271 14.0835 22.2923 14.1987 22.3354 14.3058C22.3784 14.413 22.4425 14.51 22.5238 14.5913C22.6051 14.6726 22.7021 14.7366 22.8092 14.7797C22.9163 14.8228 23.0315 14.8441 23.1482 14.8423L27.2807 14.7845L21.0826 20.9912C20.9138 21.16 20.8171 21.3871 20.8138 21.6225C20.8105 21.8579 20.9008 22.0823 21.0649 22.2464C21.229 22.4105 21.4534 22.5008 21.6888 22.4975C21.9242 22.4941 22.1512 22.3974 22.32 22.2286L28.5194 16.0206L28.4596 20.1538C28.4562 20.3893 28.5465 20.6138 28.7105 20.7779C28.8746 20.9421 29.099 21.0325 29.3345 21.0293C29.5699 21.026 29.797 20.9294 29.9659 20.7606C30.1348 20.5919 30.2316 20.3648 30.235 20.1293L30.2987 15.6284C30.3037 15.2787 30.2398 14.9334 30.1105 14.6122C29.9813 14.291 29.7893 14.0002 29.5455 13.7565C29.3018 13.5127 29.011 13.3207 28.6898 13.1915C28.3686 13.0622 28.0233 12.9983 27.6736 13.0033L23.1727 13.067C22.9373 13.0703 22.7103 13.167 22.5415 13.3358C22.3728 13.5045 22.2761 13.7316 22.2727 13.9669Z" fill="#29A75D"/>
</g>
<defs>
<clipPath id="clip0_16_17">
<rect width="24" height="24" fill="white" transform="translate(8 8)"/>
</clipPath>
</defs>
</svg>
